# xmcd CD database file generated by LOLA_Freedb v0.9beta0
# 
# Track frame offsets:
#      150
#      16003
#      31553
#      55905
#      85849
#      105725
#      128584
#      153371
#      178337
#      199968
#      218611
#      240618
#      260417
#      287013
#      307749
#      323254
# 
# Disc length: 4482 seconds
# 
# Revision: 0 
# Processed by: cddbd v1.5.2PL0 Copyright (c) Steve Scherf et al.
# Submitted via: LOLA_Freedb v0.9beta0
# 
DISCID=c4118010
DTITLE=Phil Collins - Complete Hits
DYEAR=1900
DGENRE=
TTITLE0=Phil Collins - A grovy kind of love
TTITLE1=Phil Collins - Against all odds
TTITLE2=Phil Collins - Another day in paradise
TTITLE3=Phil Collins - Both sides of the story
TTITLE4=Phil Collins - Dance into the light
TTITLE5=Phil Collins - Easy lover
TTITLE6=Phil Collins - I wish it would rain
TTITLE7=Phil Collins - In the air tonight
TTITLE8=Phil Collins - One more night
TTITLE9=Phil Collins - Separate lives
TTITLE10=Phil Collins - Something happend on the way to haven
TTITLE11=Phil Collins - Sussudio
TTITLE12=Phil Collins - Take me home
TTITLE13=Phil Collins - True colors
TTITLE14=Phil Collins - Two hearts
TTITLE15=Phil Collins - You can't hurry love
EXTD=
EXTT0=
EXTT1=
EXTT2=
EXTT3=
EXTT4=
EXTT5=
EXTT6=
EXTT7=
EXTT8=
EXTT9=
EXTT10=
EXTT11=
EXTT12=
EXTT13=
EXTT14=
EXTT15=
PLAYORDER=
